<?xml version="1.0" encoding="utf-8" ?>
<svg baseProfile="full" height="200mm" version="1.1" viewBox="0,0,200,200" width="200mm" xmlns="http://www.w3.org/2000/svg" xmlns:ev="http://www.w3.org/2001/xml-events" xmlns:xlink="http://www.w3.org/1999/xlink"><defs /><rect fill="#1a1a1a" height="200" width="200" x="0" y="0" /><text alignment-baseline="middle" fill="#e1ed5e" style="dominant-baseline: central; font-size:9.0px; font-family:Arial;" text-anchor="middle" x="100.0" y="100.0">2020</text><line stroke="#e1ed5e" stroke-width="0.3" x1="100.0" x2="100.0" y1="15.0" y2="10.0" /><path d="M 100.0 14.0 a86.0,86.0 0 0,1 42.35913384403234,11.155469271406648" fill="none" id="id13" stroke="none" /><text fill="#e1ed5e" style="font-size:6.75px; font-family:Arial;" text-anchor="middle"><textPath startOffset="22.145653131862478" xlink:href="#id13">January</textPath></text><line stroke="#e1ed5e" stroke-width="0.3" x1="143.13028292997686" x2="145.6673583964461" y1="26.7553504044142" y2="22.446841604673864" /><path d="M 143.63769802327073 25.89364864446614 a86.0,86.0 0 0,1 29.32050498858742,28.57503671076993" fill="none" id="id14" stroke="none" /><text fill="#e1ed5e" style="font-size:6.75px; font-family:Arial;" text-anchor="middle"><textPath startOffset="20.669276256404974" xlink:href="#id14">February</textPath></text><line stroke="#e1ed5e" stroke-width="0.3" x1="172.87174338648825" x2="177.1583165268699" y1="56.24261187166439" y2="53.66864786411523" /><path d="M 173.72905801456457 55.72781907015455 a86.0,86.0 0 0,1 12.242430191666344,42.057860355516425" fill="none" id="id15" stroke="none" /><text fill="#e1ed5e" style="font-size:6.75px; font-family:Arial;" text-anchor="middle"><textPath startOffset="22.145653131862474" xlink:href="#id15">March</textPath></text><line stroke="#e1ed5e" stroke-width="0.3" x1="184.99686870605535" x2="189.99668451229388" y1="99.2704041080226" y2="99.22748670261217" /><path d="M 185.99683186730306 99.26182062694052 a86.0,86.0 0 0,1 -10.086455211305974,41.156179273409016" fill="none" id="id16" stroke="none" /><text fill="#e1ed5e" style="font-size:6.75px; font-family:Arial;" text-anchor="middle"><textPath startOffset="21.40746469413373" xlink:href="#id16">April</textPath></text><path d="M 120.51834098615036 104.47187691870673 l 33.738558258711386 7.353161741946495 a55.53055604793656,55.53055604793656 0 0,0 -0.21098739163279545,0.9296493773204555 l -33.607360005520924 -7.9312454532059675" fill="#c9ff1d" stroke="none" /><line stroke="#e1ed5e" stroke-width="0.3" x1="174.33088141563837" x2="178.70328620479359" y1="141.23008692659167" y2="143.65538615756765" /><path d="M 175.20536237346943 141.71514677278685 a86.0,86.0 0 0,1 -30.301960400862466,31.631185727798858" fill="none" id="id17" stroke="none" /><text fill="#e1ed5e" style="font-size:6.75px; font-family:Arial;" text-anchor="middle"><textPath startOffset="22.145653131862474" xlink:href="#id17">May</textPath></text><line stroke="#e1ed5e" stroke-width="0.3" x1="143.1302829299769" x2="145.66735839644613" y1="173.24464959558577" y2="177.55315839532614" /><path d="M 143.63769802327073 174.10635135553383 a86.0,86.0 0 0,1 -40.68552437913181,11.842963189579606" fill="none" id="id18" stroke="none" /><text fill="#e1ed5e" style="font-size:6.75px; font-family:Arial;" text-anchor="middle"><textPath startOffset="21.407464694133747" xlink:href="#id18">June</textPath></text><path d="M 107.407793817531 119.65005319985036 l 12.614293742115942 33.460912819214094 a56.759657343260876,56.759657343260876 0 0,0 -0.9146706568263796,0.33587973469537585 l -12.038033933635434 -33.67252340291819" fill="#b6ff1f" stroke="none" /><path d="M 107.06938296918513 119.77432235084164 l 8.350999602889228 23.359232173316116 a45.80711434436385,45.80711434436385 0 0,0 -0.7427170492156941,0.2583555439264885 l -7.948776781628512 -23.499146149811196" fill="#ff930d" stroke="none" /><path d="M 106.72888874123015 119.89276391827305 l 13.472180278768446 39.82810714462198 a63.04494928272748,63.04494928272748 0 0,0 -1.0281648397850451,0.3379782047859947 l -12.786492701335666 -40.05350627081" fill="#5bff2a" stroke="none" /><path d="M 106.38641147887787 120.00534299687104 l 6.324338045661311 19.810898851422863 a41.795888175721345,41.795888175721345 0 0,0 -0.6853716952742744,0.21232990315418473 l -5.983325717515412 -19.916545342383692" fill="#ff4a06" stroke="none" /><path d="M 105.69591212413111 120.21278271476187 l 7.65514363649005 27.1654041710254 a49.22340177707957,49.22340177707957 0 0,0 -0.8152768879682122,0.22220734119102398 l -7.187685347587142 -27.292812006360567" fill="#ffcf13" stroke="none" /><path d="M 104.9986988182912 120.39639698878246 l 6.194392804353553 25.27523648349008 a47.02322196637025,47.02322196637025 0 0,0 -0.785663648359616,0.1854144817616663 l -5.759597002254059 -25.37784710889797" fill="#ffa90f" stroke="none" /><path d="M 104.64783097203109 120.47920084513623 l 5.768433911610638 25.416784162042262 a47.063149213639974,47.063149213639974 0 0,0 -0.7894004735859791,0.17204615908411244 l -5.331271021405523 -25.512061779260094" fill="#ffa90f" stroke="none" /><path d="M 104.29559338865022 120.5559693870025 l 5.062034873910192 24.223669348912406 a45.74692614831429,45.74692614831429 0 0,0 -0.7700809128373707,0.15403774994127722 l -4.645457475541862 -24.306996495516543" fill="#ff920d" stroke="none" /><path d="M 103.94208987418118 120.62667999033965 l 5.8281787591838015 30.495494021974718 a52.04742861000403,52.04742861000403 0 0,0 -0.8790197683785433,0.16018668348769283 l -5.303824257254201 -30.59104887939377" fill="#fffe18" stroke="none" /><path d="M 103.58742460773223 120.69131181640829 l 5.207857977644232 30.037540880649875 a51.485662972486345,51.485662972486345 0 0,0 -0.872124218549563,0.14350770828013845 l -4.691456256041597 -30.122514587425684" fill="#fff517" stroke="none" /><path d="M 102.875027216393 120.80226474461374 l 4.080366601609344 29.52350009689611 a50.804134773130954,50.804134773130954 0 0,0 -0.8649335676687798,0.11198296690801214 l -3.5729552120497887 -29.58919466000452" fill="#ffe915" stroke="none" /><path d="M 102.51750503828377 120.84855314841334 l 2.9654845705563964 24.558466314805397 a45.736862502622266,45.736862502622266 0 0,0 -0.7802798003861989,0.08743197914119107 l -2.543468868569398 -24.60575405445356" fill="#ff920d" stroke="none" /><path d="M 102.15924093988457 120.88869738790638 l 3.0192875620947577 29.208868286388956 a50.36450380909302,50.36450380909302 0 0,0 -0.860754400332407,0.08151433663445526 l -2.5174335983773353 -29.256394378528594" fill="#ffe215" stroke="none" /><path d="M 101.80034050326958 120.92268563240118 l 3.0815977821748124 35.8128373631851 a56.94517443125088,56.94517443125088 0 0,0 -0.9746600613582876,0.07544485293017025 l -2.4663687260412885 -35.86045998311033" fill="#b3ff20" stroke="none" /><path d="M 101.44090949804482 120.95050786540614 l 1.7072302144725011 24.822752632901775 a45.881392309905806,45.881392309905806 0 0,0 -0.7862227692736041,0.04729720943613613 l -1.280863093066432 -24.848401820162604" fill="#ff940d" stroke="none" /><path d="M 100.72087961077811 120.9876233191556 l 1.0447705456231076 30.417354491158914 a51.43529200999765,51.43529200999765 0 0,0 -0.8826949727279335,0.022735091362845954 l -0.5224622588244302 -30.430807299871805" fill="#fff417" stroke="none" /><line stroke="#e1ed5e" stroke-width="0.3" x1="101.45913802915013" x2="101.54496967792366" y1="184.9874750549273" y2="189.98673829345242" /><path d="M 101.47630435890484 185.9873277026323 a86.0,86.0 0 0,1 -42.54439059252881,-10.42667462771756" fill="none" id="id19" stroke="none" /><text fill="#e1ed5e" style="font-size:6.75px; font-family:Arial;" text-anchor="middle"><textPath startOffset="22.145653131862474" xlink:href="#id19">July</textPath></text><path d="M 100.36049292484886 120.99690560180557 l 0.43024056125033544 25.05935575414896 a46.063048851916314,46.063048851916314 0 0,0 -0.7907334860991846,0.006787495961787473 l -3.069338255337306e-15 -25.063048851916314" fill="#ff980e" stroke="none" /><path d="M 100.0 121.0 l 6.070578921581475e-15 49.57003869040484 a70.57003869040484,70.57003869040484 0 0,0 -1.2114285549619381,-0.010398657157370978 l 0.85093563011308 -49.5627344314419" fill="#37ff73" stroke="none" /><path d="M 99.63950707515114 120.99690560180557 l -0.4194206102728497 24.42914785371497 a45.43274807521635,45.43274807521635 0 0,0 -0.7796836910231433,-0.02008188615229746 l 0.838717615366737 -24.418348250212624" fill="#ff8c0c" stroke="none" /><path d="M 98.91894614982273 120.97215588758144 l -2.4197632837267795 46.94276125934206 a68.00508577803957,68.00508577803957 0 0,0 -1.165334009568809,-0.07010360023603528 l 3.225241645428035 -46.89430568128133" fill="#32ff4b" stroke="none" /><path d="M 98.55909050195518 120.95050786540614 l -2.086634678553677 30.339210272807975 a51.41088167514056,51.41088167514056 0 0,0 -0.8799364228565316,-0.06811264423597559 l 2.6071400961854447 -30.298919861576948" fill="#fff316" stroke="none" /><path d="M 97.84075906011543 120.88869738790638 l -5.910182697200334 57.17565630987798 a78.48030909780823,78.48030909780823 0 0,0 -1.3388893895722311,-0.15002534875758894 l 6.890807988373364 -57.065775200613416" fill="#44ffe5" stroke="none" /><path d="M 97.48249496171623 120.84855314841334 l -3.5953082341575406 29.774309749092364 a50.99059456452135,50.99059456452135 0 0,0 -0.8681080205614816,-0.11239396338973356 l 4.105894076609816 -29.708204189502233" fill="#ffec16" stroke="none" /><path d="M 96.76829788921471 120.74984581791261 l -3.73451593722196 23.978271277937555 a45.26734643020802,45.26734643020802 0 0,0 -0.7667911191578852,-0.1261751868591856 l 4.145584559432908 -23.910630092582704" fill="#ff890c" stroke="none" /><path d="M 96.41257539226777 120.69131181640829 l -10.006065117831696 57.71232459132297 a79.57331942852915,79.57331942852915 0 0,0 -1.34389964463553,-0.24490328290516925 l 10.995299496018283 -57.53205313448643" fill="#46fff4" stroke="none" /><path d="M 96.05791012581884 120.62667999033965 l -5.536709908642257 28.970405832928495 a50.494738017772505,50.494738017772505 0 0,0 -0.8500032072131487,-0.17002444717083048 l 6.033209601386364 -28.871091989094804" fill="#ffe415" stroke="none" /><path d="M 94.6519064749342 120.30758222061772 l -6.279316491933163 23.84358750488464 a45.65657074106119,45.65657074106119 0 0,0 -0.7562002130134233,-0.2061057307297865 l 6.687698105881282 -23.732281280010707" fill="#ff900d" stroke="none" /><path d="M 94.30408787586889 120.21278271476187 l -8.068217106225749 28.631256190340746 a50.746343612452925,50.746343612452925 0 0,0 -0.836444702366342,-0.24347686238313687 l 8.558521820973699 -28.488535633655093" fill="#ffe815" stroke="none" /><path d="M 92.93061703081489 119.77432235084164 l -10.060123674622472 28.139956386356218 a50.88416359503357,50.88416359503357 0 0,0 -0.8199882366459958,-0.3011110385169639 l 10.541701062922588 -27.963114498830535" fill="#ffeb16" stroke="none" /><path d="M 92.59220618246901 119.65005319985036 l -10.562601504250962 28.018555402575853 a50.94341325541925,50.94341325541925 0 0,0 -0.8156470752250866,-0.3155098107918978 l 11.042020841969578 -27.833105703645916" fill="#ffec16" stroke="none" /><line stroke="#e1ed5e" stroke-width="0.3" x1="58.13341422392154" x2="55.67067388415222" y1="173.97424548756322" y2="178.32567169271397" /><path d="M 57.64086615596768 174.84453072859336 a86.0,86.0 0 0,1 -31.369924170532247,-30.572349798747897" fill="none" id="id20" stroke="none" /><text fill="#e1ed5e" style="font-size:6.75px; font-family:Arial;" text-anchor="middle"><textPath startOffset="22.145653131862474" xlink:href="#id20">August</textPath></text><path d="M 89.34428304082925 118.09573695890944 l -31.967150877512246 54.2872108767283 a84.0,84.0 0 0,0 -1.236268973770291,-0.7423439978563251 l 32.89435260783996 -53.73045287833606" fill="#4dd2ff" stroke="none" /><path d="M 88.1277618465304 117.32195027204791 l -14.838883495875457 21.65037448588826 a47.24749852430449,47.24749852430449 0 0,0 -0.6650758330259372,-0.4642745838442737 l 15.20835442007516 -21.392455086238858" fill="#ffac10" stroke="none" /><path d="M 87.54013794807813 116.9041958592261 l -17.141777179074456 23.25611291704403 a49.89095555476385,49.89095555476385 0 0,0 -0.6850432340286645,-0.5140692139841715 l 17.538473402013885 -22.958424675795847" fill="#ffda14" stroke="none" /><line stroke="#e1ed5e" stroke-width="0.3" x1="26.387840678322732" x2="22.057713659400548" y1="142.50000000000003" y2="145.00000000000006" /><path d="M 25.521815274538298 143.00000000000003 a86.0,86.0 0 0,1 -11.493303480769221,-40.785679425670985" fill="none" id="id21" stroke="none" /><text fill="#e1ed5e" style="font-size:6.75px; font-family:Arial;" text-anchor="middle"><textPath startOffset="21.40746469413373" xlink:href="#id21">September</textPath></text><path d="M 81.81346652052679 110.50000000000001 l -29.985960216086323 17.312402202666867 a55.624804405333705,55.624804405333705 0 0,0 -0.47033853998091035,-0.83104313317781 l 30.278732121088613 -16.795102299389935" fill="#c7ff1e" stroke="none" /><path d="M 81.4637452351635 109.86951160357371 l -31.751070065343864 16.905656423661995 a56.971261715559535,56.971261715559535 0 0,0 -0.4522214108714364,-0.8671941829740576 l 32.03659954519025 -16.358115997583432" fill="#b3ff20" stroke="none" /><path d="M 79.64726062577567 105.17358676015961 l -34.98002898090969 8.89178657860796 a57.09246868897713,57.09246868897713 0 0,0 -0.2332974264520091,-0.9519331128661804 l 35.12751393387799 -8.289997641133679" fill="#b1ff20" stroke="none" /><line stroke="#e1ed5e" stroke-width="0.3" x1="15.003131293944662" x2="10.003315487706104" y1="100.72959589197737" y2="100.7725132973878" /><path d="M 14.003168132696942 100.73817937305945 a86.0,86.0 0 0,1 10.791469493833604,-42.45332614584628" fill="none" id="id22" stroke="none" /><text fill="#e1ed5e" style="font-size:6.75px; font-family:Arial;" text-anchor="middle"><textPath startOffset="22.145653131862435" xlink:href="#id22">October</textPath></text><line stroke="#e1ed5e" stroke-width="0.3" x1="26.387840678322718" x2="22.05771365940052" y1="57.49999999999999" y2="54.99999999999999" /><path d="M 25.521815274538284 56.99999999999999 a86.0,86.0 0 0,1 29.574782752854787,-30.34633250058573" fill="none" id="id23" stroke="none" /><text fill="#e1ed5e" style="font-size:6.75px; font-family:Arial;" text-anchor="middle"><textPath startOffset="21.40746469413373" xlink:href="#id23">November</textPath></text><path d="M 86.96720088162412 83.53348406188908 l -15.898907457041824 -20.087750195642908 a46.61821551650567,46.61821551650567 0 0,0 0.6317657397546879,-0.4912648604341611 l 15.551731772651893 20.357716107697875" fill="#ffa10e" stroke="none" /><line stroke="#e1ed5e" stroke-width="0.3" x1="56.869717070023135" x2="54.33264160355391" y1="26.7553504044142" y2="22.446841604673864" /><path d="M 56.362301976729285 25.89364864446614 a86.0,86.0 0 0,1 42.16139366436587,-11.88097634709845" fill="none" id="id24" stroke="none" /><text fill="#e1ed5e" style="font-size:6.75px; font-family:Arial;" text-anchor="middle"><textPath startOffset="22.145653131862474" xlink:href="#id24">December</textPath></text><path d="M 95.00130118170881 79.60360301121753 l -7.936951348290039 -32.38546999231224 a54.34387295033496,54.34387295033496 0 0,0 0.9079770314055339,-0.21428010711842604 l 7.379842163144599 32.516946243076895" fill="#dbff1b" stroke="none" /><path d="M 95.35216902796891 79.52079915486377 l -9.620239318571915 -42.38854949090709 a64.46651737245206,64.46651737245206 0 0,0 1.08131096610734,-0.23566669228003492 l 8.891165935845457 42.54744764132084" fill="#47ff2c" stroke="none" /><path d="M 95.70440661134978 79.44403061299748 l -3.472408507400778 -16.616731733942487 a37.97567066009707,37.97567066009707 0 0,0 0.6392634782220232,-0.12787059926227412 l 3.1866485436477783 16.673891729867627" fill="#ff0000" stroke="none" /></svg>