<?xml version="1.0" encoding="utf-8" ?>
<svg baseProfile="full" height="200mm" version="1.1" viewBox="0,0,200,200" width="200mm" xmlns="http://www.w3.org/2000/svg" xmlns:ev="http://www.w3.org/2001/xml-events" xmlns:xlink="http://www.w3.org/1999/xlink"><defs /><rect fill="#1a1a1a" height="200" width="200" x="0" y="0" /><text alignment-baseline="middle" fill="#e1ed5e" style="dominant-baseline: central; font-size:9.0px; font-family:Arial;" text-anchor="middle" x="100.0" y="100.0">2019</text><line stroke="#e1ed5e" stroke-width="0.3" x1="100.0" x2="100.0" y1="15.0" y2="10.0" /><path d="M 100.0 14.0 a86.0,86.0 0 0,1 42.46469731375804,11.215312516191453" fill="none" id="id1" stroke="none" /><text fill="#e1ed5e" style="font-size:6.75px; font-family:Arial;" text-anchor="middle"><textPath startOffset="22.20632615414155" xlink:href="#id1">January</textPath></text><path d="M 105.36241919743992 79.69619591428918 l 6.337741595324462 -23.99668115442402 a45.819501907898854,45.819501907898854 0 0,0 0.7608265252382161,0.20796262973609897 l -6.7498660097863885 23.88403198386163" fill="#fffa17" stroke="none" /><path d="M 107.76421540070413 80.48803036053334 l 8.507736376667637 -21.380485382601602 a44.01101330777318,44.01101330777318 0 0,0 0.7014855271367535,0.2861535597717166 l -8.874505773392778 21.230870936646305" fill="#ffe115" stroke="none" /><line stroke="#e1ed5e" stroke-width="0.3" x1="143.23703022742887" x2="145.7803849466894" y1="26.81831364943548" y2="22.513508569990506" /><path d="M 143.74570117128098 25.957352633546492 a86.0,86.0 0 0,1 28.547481713284135,27.462654790039103" fill="none" id="id2" stroke="none" /><text fill="#e1ed5e" style="font-size:6.75px; font-family:Arial;" text-anchor="middle"><textPath startOffset="19.985693538727396" xlink:href="#id2">February</textPath></text><line stroke="#e1ed5e" stroke-width="0.3" x1="172.23445277983987" x2="176.4835382374775" y1="55.19839476539836" y2="52.563006222186495" /><path d="M 173.08426987136738 54.67131705675599 a86.0,86.0 0 0,1 12.851231095245387,41.99856678651699" fill="none" id="id3" stroke="none" /><text fill="#e1ed5e" style="font-size:6.75px; font-family:Arial;" text-anchor="middle"><textPath startOffset="22.20632615414155" xlink:href="#id3">March</textPath></text><line stroke="#e1ed5e" stroke-width="0.3" x1="184.98032266829074" x2="189.97916517819016" y1="98.17113171792111" y2="98.06355123074" /><path d="M 185.9800911702706 98.14961562048488 a86.0,86.0 0 0,1 -9.607161424134198,41.387399972396054" fill="none" id="id4" stroke="none" /><text fill="#e1ed5e" style="font-size:6.75px; font-family:Arial;" text-anchor="middle"><textPath startOffset="21.466115282336823" xlink:href="#id4">April</textPath></text><line stroke="#e1ed5e" stroke-width="0.3" x1="174.80103733775053" x2="179.2010983576182" y1="140.37084112569926" y2="142.7455964860345" /><path d="M 175.68104954172406 140.8457921977663 a86.0,86.0 0 0,1 -30.038265399797805,32.042727171017184" fill="none" id="id5" stroke="none" /><text fill="#e1ed5e" style="font-size:6.75px; font-family:Arial;" text-anchor="middle"><textPath startOffset="22.206326154141568" xlink:href="#id5">May</textPath></text><line stroke="#e1ed5e" stroke-width="0.3" x1="143.8653032363475" x2="146.44561519142675" y1="172.8068346515853" y2="177.08958963109032" /><path d="M 144.38136562736335 173.6633856474863 a86.0,86.0 0 0,1 -40.68145358897372,12.25698825130547" fill="none" id="id6" stroke="none" /><text fill="#e1ed5e" style="font-size:6.75px; font-family:Arial;" text-anchor="middle"><textPath startOffset="21.466115282336833" xlink:href="#id6">June</textPath></text><line stroke="#e1ed5e" stroke-width="0.3" x1="102.19456741930631" x2="102.32365962044197" y1="184.97166512339345" y2="189.96999836594603" /><path d="M 102.22038585953345 185.97133177190398 a86.0,86.0 0 0,1 -42.740103519485714,-10.115201625700543" fill="none" id="id7" stroke="none" /><text fill="#e1ed5e" style="font-size:6.75px; font-family:Arial;" text-anchor="middle"><textPath startOffset="22.20632615414155" xlink:href="#id7">July</textPath></text><path d="M 95.86986931433489 120.58985236759428 l -12.390392056995301 61.76955710278283 a84.0,84.0 0 0,0 -1.415234154282453,-0.29657607709383527 l 13.451817672707142 -61.54712504496245" fill="#4dd2ff" stroke="none" /><path d="M 94.81253420990036 120.34920634021253 l -15.505073138630491 60.82274956304207 a83.76793892938349,83.76793892938349 0 0,0 -1.3941759638953826,-0.3682145435329222 l 16.549739545337363 -60.54684367020557" fill="#4dd4ff" stroke="none" /><path d="M 93.08242187328487 119.8279376855182 l -20.674327584212797 59.25907471093786 a83.7619769976684,83.7619769976684 0 0,0 -1.3572648731090158,-0.48666689432571497 l 21.69131201795154 -58.89442027557219" fill="#4dd4ff" stroke="none" /><line stroke="#e1ed5e" stroke-width="0.3" x1="58.666819895761336" x2="56.23545636021788" y1="174.27360380694188" y2="178.64263932499728" /><path d="M 58.180547188652646 175.14741091055294 a86.0,86.0 0 0,1 -31.652253787137756,-30.449443065178592" fill="none" id="id8" stroke="none" /><text fill="#e1ed5e" style="font-size:6.75px; font-family:Arial;" text-anchor="middle"><textPath startOffset="22.20632615414155" xlink:href="#id8">August</textPath></text><path d="M 83.50135304334701 112.99209946851258 l -19.866299882636998 15.64400673731856 a46.28645522456897,46.28645522456897 0 0,0 -0.48753563575313213,-0.6302055296759941 l 20.132642335608196 -15.299723213529314" fill="#fdff18" stroke="none" /><path d="M 83.28015986056508 112.70617746262583 l -26.82661913233435 20.38678483616375 a54.694042352133465,54.694042352133465 0 0,0 -0.5631890684547958,-0.7544837922374047 l 27.17356946748423 -19.921988164417034" fill="#8fff24" stroke="none" /><path d="M 83.06392112726016 112.41649034213515 l -23.269616198053605 17.059849978224793 a49.85331036959633,49.85331036959633 0 0,0 -0.5014298365252103,-0.69644218664066 l 23.55982582695442 -16.656774186132996" fill="#cdff1d" stroke="none" /><path d="M 82.85270091963577 112.12312394758628 l -6.813106364969161 4.816859643230514 a29.343893285689006,29.343893285689006 0 0,0 -0.2880439782020516,-0.41494883393510495 l 6.895011250333346 -4.698869547108396" fill="#ff0000" stroke="none" /><path d="M 82.44556493220864 111.52570212397912 l -35.45963010615126 23.28170245591402 a63.41960674630049,63.41960674630049 0 0,0 -0.5912976460698067,-0.9177070776988913 l 35.855132615598116 -22.66787377829368" fill="#30ff36" stroke="none" /><line stroke="#e1ed5e" stroke-width="0.3" x1="26.63291911575756" x2="22.317208475507996" y1="142.92168965132927" y2="145.44649492493687" /><path d="M 25.769776987707644 143.4266507060508 a86.0,86.0 0 0,1 -11.730757126820373,-40.83630448921669" fill="none" id="id9" stroke="none" /><text fill="#e1ed5e" style="font-size:6.75px; font-family:Arial;" text-anchor="middle"><textPath startOffset="21.46611528233685" xlink:href="#id9">September</textPath></text><path d="M 81.87401531095188 110.60418214915194 l -16.54802830424521 9.681035781386461 a40.171846404522064,40.171846404522064 0 0,0 -0.3440393517488855,-0.5998616089374499 l 16.712219652146473 -9.394754326590704" fill="#ffaa0f" stroke="none" /><path d="M 81.69416730710424 110.29060199501025 l -24.253338055188582 13.633985034356877 a48.822831537000795,48.822831537000795 0 0,0 -0.4055168370203529,-0.7361308495195715 l 24.48443130166045 -13.214483666439483" fill="#dbff1b" stroke="none" /><path d="M 81.51974371655577 109.97397251340807 l -22.769529838021832 12.288934810449968 a46.87410689898408,46.87410689898408 0 0,0 -0.37710775189437734,-0.7133457498172923 l 22.977690098141096 -11.89517404554655" fill="#f5ff19" stroke="none" /><path d="M 81.35079622478065 109.6543875284942 l -26.75466920950016 13.850454306709288 a51.127187207106104,51.127187207106104 0 0,0 -0.397870140165326,-0.7850355324961775 l 26.98911801945175 -13.387864562510426" fill="#bdff1f" stroke="none" /><path d="M 81.02952815118164 109.00673069616217 l -29.194394689223927 13.86080709530086 a53.31771425400208,53.31771425400208 0 0,0 -0.38649092769238574,-0.8324670744023296 l 29.42866023375614 -13.356219953619703" fill="#a1ff22" stroke="none" /><path d="M 79.58551787078972 104.9243191809786 l -30.615987823224525 7.38509530284832 a52.49410013040514,52.49410013040514 0 0,0 -0.20432562079257555,-0.8802294266760926 l 30.738574009947655 -6.856997218823654" fill="#abff21" stroke="none" /><path d="M 79.29508885075956 103.50808413554451 l -38.06425639337796 6.449320792656797 a59.60675269259784,59.60675269259784 0 0,0 -0.16269307107429126,-1.0130899088822918 l 38.16963121881354 -5.793151654081291" fill="#55ff2b" stroke="none" /><line stroke="#e1ed5e" stroke-width="0.3" x1="15.007084014347285" x2="10.007500721073583" y1="101.09737516637583" y2="101.16192664675087" /><path d="M 14.007167355692545 101.11028546245083 a86.0,86.0 0 0,1 10.666146001902534,-42.60595125391555" fill="none" id="id10" stroke="none" /><text fill="#e1ed5e" style="font-size:6.75px; font-family:Arial;" text-anchor="middle"><textPath startOffset="22.20632615414155" xlink:href="#id10">October</textPath></text><line stroke="#e1ed5e" stroke-width="0.3" x1="26.266209847984243" x2="21.928928074336255" y1="57.711370442889674" y2="55.22380399835377" /><path d="M 25.398753493254645 57.213857153982495 a86.0,86.0 0 0,1 29.58750427330803,-30.492523968695096" fill="none" id="id11" stroke="none" /><text fill="#e1ed5e" style="font-size:6.75px; font-family:Arial;" text-anchor="middle"><textPath startOffset="21.46611528233685" xlink:href="#id11">November</textPath></text><line stroke="#e1ed5e" stroke-width="0.3" x1="56.762969772571076" x2="54.21961505331055" y1="26.818313649435495" y2="22.513508569990535" /><path d="M 56.25429882871897 25.957352633546506 a86.0,86.0 0 0,1 42.265352541879196,-11.944610805530505" fill="none" id="id12" stroke="none" /><text fill="#e1ed5e" style="font-size:6.75px; font-family:Arial;" text-anchor="middle"><textPath startOffset="22.20632615414155" xlink:href="#id12">December</textPath></text></svg>