<?xml version="1.0" encoding="utf-8" ?>
<svg baseProfile="full" height="200mm" version="1.1" viewBox="0,0,200,200" width="200mm" xmlns="http://www.w3.org/2000/svg" xmlns:ev="http://www.w3.org/2001/xml-events" xmlns:xlink="http://www.w3.org/1999/xlink"><defs /><rect fill="#1a1a1a" height="200" width="200" x="0" y="0" /><text alignment-baseline="middle" fill="#e1ed5e" style="dominant-baseline: central; font-size:9.0px; font-family:Arial;" text-anchor="middle" x="100.0" y="100.0">2021</text><line stroke="#e1ed5e" stroke-width="0.3" x1="100.0" x2="100.0" y1="15.0" y2="10.0" /><path d="M 100.0 14.0 a86.0,86.0 0 0,1 42.46469731375804,11.215312516191453" fill="none" id="id25" stroke="none" /><text fill="#e1ed5e" style="font-size:6.75px; font-family:Arial;" text-anchor="middle"><textPath startOffset="22.20632615414155" xlink:href="#id25">January</textPath></text><path d="M 101.44485096284872 79.0497635885617 l 2.283168669751836 -33.105783661022755 a54.18442060643786,54.18442060643786 0 0,0 0.9299331795370251,0.07218071237785997 l -2.852692038651202 33.06157768645643" fill="#fffe18" stroke="none" /><line stroke="#e1ed5e" stroke-width="0.3" x1="143.23703022742887" x2="145.7803849466894" y1="26.81831364943548" y2="22.513508569990506" /><path d="M 143.74570117128098 25.957352633546492 a86.0,86.0 0 0,1 28.547481713284135,27.462654790039103" fill="none" id="id26" stroke="none" /><text fill="#e1ed5e" style="font-size:6.75px; font-family:Arial;" text-anchor="middle"><textPath startOffset="19.985693538727396" xlink:href="#id26">February</textPath></text><path d="M 110.99172775467656 82.1063720568725 l 20.92652752149643 -34.06666412857255 a60.980709835580946,60.980709835580946 0 0,0 0.8896819794460169,0.5571187739095141 l -21.50982865331471 33.70140101334009" fill="#8fff24" stroke="none" /><line stroke="#e1ed5e" stroke-width="0.3" x1="172.23445277983987" x2="176.4835382374775" y1="55.19839476539836" y2="52.563006222186495" /><path d="M 173.08426987136738 54.67131705675599 a86.0,86.0 0 0,1 12.851231095245387,41.99856678651699" fill="none" id="id27" stroke="none" /><text fill="#e1ed5e" style="font-size:6.75px; font-family:Arial;" text-anchor="middle"><textPath startOffset="22.20632615414155" xlink:href="#id27">March</textPath></text><line stroke="#e1ed5e" stroke-width="0.3" x1="184.98032266829074" x2="189.97916517819016" y1="98.17113171792111" y2="98.06355123074" /><path d="M 185.9800911702706 98.14961562048488 a86.0,86.0 0 0,1 -9.607161424134198,41.387399972396054" fill="none" id="id28" stroke="none" /><text fill="#e1ed5e" style="font-size:6.75px; font-family:Arial;" text-anchor="middle"><textPath startOffset="21.466115282336823" xlink:href="#id28">April</textPath></text><line stroke="#e1ed5e" stroke-width="0.3" x1="174.80103733775053" x2="179.2010983576182" y1="140.37084112569926" y2="142.7455964860345" /><path d="M 175.68104954172406 140.8457921977663 a86.0,86.0 0 0,1 -30.038265399797805,32.042727171017184" fill="none" id="id29" stroke="none" /><text fill="#e1ed5e" style="font-size:6.75px; font-family:Arial;" text-anchor="middle"><textPath startOffset="22.206326154141568" xlink:href="#id29">May</textPath></text><path d="M 116.71984013943494 112.70617746262583 l 17.589038860078407 13.366721648615666 a43.09170739560252,43.09170739560252 0 0,0 -0.4538853290638581,0.586707972173117 l -17.35634671379648 -13.667507614902036" fill="#ff2a04" stroke="none" /><path d="M 116.498646956653 112.99209946851258 l 35.127768430597825 27.66187207692012 a65.71173539143385,65.71173539143385 0 0,0 -0.7074403018949673,0.8826405505330718 l -34.646410216648 -28.262440461031442" fill="#48ff2c" stroke="none" /><path d="M 116.27256486870786 113.27417163493432 l 22.296948800968 18.18849872207604 a49.77456188364907,49.77456188364907 0 0,0 -0.5472926401181398,0.6592492414300472 l -21.980560160956315 -18.569609220619856" fill="#ffae10" stroke="none" /><path d="M 114.81725581225074 114.88116024355365 l 16.173627958825758 16.24338220414014 a43.92234077881853,43.92234077881853 0 0,0 -0.5403494681892553,0.5288456831106659 l -15.89162853826071 -16.51937799017338" fill="#ff3b05" stroke="none" /><path d="M 114.0293411484842 115.62618273729858 l 28.56533298268929 31.816683935119265 a63.75838660472578,63.75838660472578 0 0,0 -0.8229618216928145,0.7261681235136237 l -28.013428808089888 -32.30367520040518" fill="#65ff29" stroke="none" /><path d="M 113.20401910651253 116.32954008644616 l 28.009670631365655 34.639834711951174 a65.54727598573099,65.54727598573099 0 0,0 -0.88346025431186,0.7018742570731964 l -27.409252884336443 -35.11684288302949" fill="#4bff2c" stroke="none" /><path d="M 112.63410532772338 116.77436683061366 l 26.30894320270164 34.9305196339867 a64.72987187659382,64.72987187659382 0 0,0 -0.8957844585818503,0.6626799272770042 l -25.70377377370123 -35.37820951000347" fill="#56ff2a" stroke="none" /><path d="M 112.34349029814194 116.9893568818739 l 25.520672183717785 35.126191791940734 a64.4183608455339,64.4183608455339 0 0,0 -0.9026934848385736,0.6440478334337862 l -24.912251371030326 -35.56028388721874" fill="#5bff2a" stroke="none" /><path d="M 112.04921762599082 117.19931262002967 l 24.240669288378932 34.60165316545168 a63.24789283894251,63.24789283894251 0 0,0 -0.8970452116280319,0.6169958762527085 l -23.64146719212802 -35.01378983106948" fill="#6dff28" stroke="none" /><path d="M 111.1453310114006 117.79835938074945 l 11.802388528155737 18.847636948644773 a43.23802584577736,43.23802584577736 0 0,0 -0.6342005387792312,0.3895777695997022 l -11.476208789444197 -19.048003185072854" fill="#ff2d04" stroke="none" /><line stroke="#e1ed5e" stroke-width="0.3" x1="143.8653032363475" x2="146.44561519142675" y1="172.8068346515853" y2="177.08958963109032" /><path d="M 144.38136562736335 173.6633856474863 a86.0,86.0 0 0,1 -40.68145358897372,12.25698825130547" fill="none" id="id30" stroke="none" /><text fill="#e1ed5e" style="font-size:6.75px; font-family:Arial;" text-anchor="middle"><textPath startOffset="21.466115282336833" xlink:href="#id30">June</textPath></text><path d="M 109.57404056367764 118.69057910512821 l 9.146766928864391 17.856449395952946 a41.06280464643953,41.06280464643953 0 0,0 -0.6318707076706248,0.31683309024676853 l -8.838042313511005 -18.011250327109018" fill="#ff0000" stroke="none" /><path d="M 109.2508944713604 118.85261126421891 l 9.329256572098219 19.01230719715073 a42.17788594612001,42.17788594612001 0 0,0 -0.654535177160549,0.31421666107427537 l -9.000608726937436 -19.170078134724566" fill="#ff1702" stroke="none" /><path d="M 108.92500713936063 119.00905698771935 l 8.810207137044483 18.764548523788388 a41.72988256356602,41.72988256356602 0 0,0 -0.6528381883332649,0.29968599257268663 l -8.4859009529438 -18.91342158669515" fill="#ff0e01" stroke="none" /><path d="M 107.93186726928326 119.44442032107085 l 9.761573490123583 23.929817720479438 a46.84423520126791,46.84423520126791 0 0,0 -0.7492376815735046,0.2981371360016078 l -9.348214732508213 -24.09430170088711" fill="#ff760a" stroke="none" /><path d="M 107.2578585660854 119.70592522655815 l 11.80128217259797 32.04184567021126 a55.14601199072762,55.14601199072762 0 0,0 -0.8935766280820338,0.32040478689659624 l -11.247985983886203 -32.24023799814781" fill="#f0ff19" stroke="none" /><path d="M 106.2309692047433 120.05430185196036 l 8.338287476889747 26.83668117997972 a49.10221512271113,49.10221512271113 0 0,0 -0.8093097840185208,0.24383839905538998 l -7.87510271843098 -26.976234948140835" fill="#ffa10e" stroke="none" /><path d="M 105.53697534728816 120.25689768951611 l 5.690681752689146 20.819229058745716 a42.582959885310245,42.582959885310245 0 0,0 -0.7087214977757406,0.18717978903202853 l -5.331469812101908 -20.91410019708133" fill="#ff2003" stroke="none" /><path d="M 105.18746579009965 120.34920634021253 l 5.112032551573645 20.053299514454597 a41.69462969528021,41.69462969528021 0 0,0 -0.6969887046845851,0.17130286596053607 l -4.766090562145849 -20.138323638729165" fill="#ff0d01" stroke="none" /><path d="M 104.83641907484287 120.43548508189849 l 4.987180952044827 21.07250434032159 a42.654616436716466,42.654616436716466 0 0,0 -0.7159472775865995,0.16294726945449461 l -4.623713525065366 -21.155228343353766" fill="#ff2103" stroke="none" /><path d="M 104.13013068566511 120.58985236759428 l 4.060127076272632 20.24086486761214 a41.64406070676061,41.64406070676061 0 0,0 -0.7040471529353322,0.13493231250640306 l -3.7111123087655957 -20.30775437846701" fill="#ff0c01" stroke="none" /><path d="M 103.7750983002368 120.6578951692458 l 4.624726537644285 25.307186304285576 a46.72628566637265,46.72628566637265 0 0,0 -0.7924578428271156,0.1377789537569204 l -4.1884197233451195 -25.383043836563502" fill="#ff730a" stroke="none" /><path d="M 103.06178313531738 120.77559828337769 l 4.137066130786566 28.071884978907885 a49.37509546132903,49.37509546132903 0 0,0 -0.8418957139106105,0.11667907457679427 l -3.653241825689125 -28.13893861897728" fill="#ffa60f" stroke="none" /><path d="M 101.98527174616119 120.90594882070398 l 1.9346791252936413 20.373182087581696 a41.464836468723774,41.464836468723774 0 0,0 -0.7111331651489816,0.06135956178135891 l -1.5837016424031178 -20.403465901641717" fill="#ff0801" stroke="none" /><path d="M 101.62511606390274 120.93702456842531 l 1.9200545386824892 24.7368356894895 a45.81124038334877,45.81124038334877 0 0,0 -0.7867256789116036,0.05425720895696643 l -1.4939660989919552 -24.766221242962754" fill="#ff6109" stroke="none" /><path d="M 101.26447882468166 120.96189622390904 l 1.2523797738887477 20.76132422366795 a41.79906340723801,41.79906340723801 0 0,0 -0.7185695532930684,0.03714183811133509 l -0.8948221521821995 -20.779805868541487" fill="#ff0f01" stroke="none" /><line stroke="#e1ed5e" stroke-width="0.3" x1="102.19456741930631" x2="102.32365962044197" y1="184.97166512339345" y2="189.96999836594603" /><path d="M 102.22038585953345 185.97133177190398 a86.0,86.0 0 0,1 -42.740103519485714,-10.115201625700543" fill="none" id="id31" stroke="none" /><text fill="#e1ed5e" style="font-size:6.75px; font-family:Arial;" text-anchor="middle"><textPath startOffset="22.20632615414155" xlink:href="#id31">July</textPath></text><path d="M 100.18074693466247 120.99922214144158 l 0.21034785324214425 24.43826394874118 a45.43916919716598,45.43916919716598 0 0,0 -0.7821895758091826,0.0 l 0.21034785324212743 -24.43826394874118" fill="#ff5a08" stroke="none" /><path d="M 99.45781275523022 120.99299961872073 l -0.5393880699939755 20.884618103721884 a41.89158234381397,41.89158234381397 0 0,0 -0.7206941017602784,-0.02482216206447466 l 0.8988025234288969 -20.872239143231315" fill="#ff1101" stroke="none" /><path d="M 98.73552117531835 120.96189622390904 l -1.6516362209975866 27.37999750443995 a48.429767872689865,48.429767872689865 0 0,0 -0.831694180082102,-0.05735850008027731 l 2.1226931618586184 -27.347510659843387" fill="#ff940d" stroke="none" /><path d="M 97.65516085044442 120.86867818915974 l -7.034517448666749 62.60603456747922 a84.0,84.0 0 0,0 -1.4354903077944425,-0.17381788509860563 l 8.111135179512582 -62.47567115365527" fill="#4dd2ff" stroke="none" /><path d="M 95.86986931433489 120.58985236759428 l -4.247252238655548 21.173735946268092 a42.595514476415005,42.595514476415005 0 0,0 -0.7176503203125616,-0.15039060220486705 l 4.611094020397497 -21.097489363336685" fill="#ff2003" stroke="none" /><line stroke="#e1ed5e" stroke-width="0.3" x1="58.666819895761336" x2="56.23545636021788" y1="174.27360380694188" y2="178.64263932499728" /><path d="M 58.180547188652646 175.14741091055294 a86.0,86.0 0 0,1 -31.652253787137756,-30.449443065178592" fill="none" id="id32" stroke="none" /><text fill="#e1ed5e" style="font-size:6.75px; font-family:Arial;" text-anchor="middle"><textPath startOffset="22.20632615414155" xlink:href="#id32">August</textPath></text><line stroke="#e1ed5e" stroke-width="0.3" x1="26.63291911575756" x2="22.317208475507996" y1="142.92168965132927" y2="145.44649492493687" /><path d="M 25.769776987707644 143.4266507060508 a86.0,86.0 0 0,1 -11.730757126820373,-40.83630448921669" fill="none" id="id33" stroke="none" /><text fill="#e1ed5e" style="font-size:6.75px; font-family:Arial;" text-anchor="middle"><textPath startOffset="21.46611528233685" xlink:href="#id33">September</textPath></text><line stroke="#e1ed5e" stroke-width="0.3" x1="15.007084014347285" x2="10.007500721073583" y1="101.09737516637583" y2="101.16192664675087" /><path d="M 14.007167355692545 101.11028546245083 a86.0,86.0 0 0,1 10.666146001902534,-42.60595125391555" fill="none" id="id34" stroke="none" /><text fill="#e1ed5e" style="font-size:6.75px; font-family:Arial;" text-anchor="middle"><textPath startOffset="22.20632615414155" xlink:href="#id34">October</textPath></text><line stroke="#e1ed5e" stroke-width="0.3" x1="26.266209847984243" x2="21.928928074336255" y1="57.711370442889674" y2="55.22380399835377" /><path d="M 25.398753493254645 57.213857153982495 a86.0,86.0 0 0,1 29.58750427330803,-30.492523968695096" fill="none" id="id35" stroke="none" /><text fill="#e1ed5e" style="font-size:6.75px; font-family:Arial;" text-anchor="middle"><textPath startOffset="21.46611528233685" xlink:href="#id35">November</textPath></text><line stroke="#e1ed5e" stroke-width="0.3" x1="56.762969772571076" x2="54.21961505331055" y1="26.818313649435495" y2="22.513508569990535" /><path d="M 56.25429882871897 25.957352633546506 a86.0,86.0 0 0,1 42.265352541879196,-11.944610805530505" fill="none" id="id36" stroke="none" /><text fill="#e1ed5e" style="font-size:6.75px; font-family:Arial;" text-anchor="middle"><textPath startOffset="22.20632615414155" xlink:href="#id36">December</textPath></text></svg>