<?xml version="1.0" encoding="utf-8" ?>
<svg baseProfile="full" height="200mm" version="1.1" viewBox="0,0,200,200" width="200mm" xmlns="http://www.w3.org/2000/svg" xmlns:ev="http://www.w3.org/2001/xml-events" xmlns:xlink="http://www.w3.org/1999/xlink"><defs /><rect fill="#1a1a1a" height="200" width="200" x="0" y="0" /><text alignment-baseline="middle" fill="#e1ed5e" style="dominant-baseline: central; font-size:9.0px; font-family:Arial;" text-anchor="middle" x="100.0" y="100.0">2021</text><line stroke="#e1ed5e" stroke-width="0.3" x1="100.0" x2="100.0" y1="15.0" y2="10.0" /><path d="M 100.0 14.0 a86.0,86.0 0 0,1 42.46469731375804,11.215312516191453" fill="none" id="id25" stroke="none" /><text fill="#e1ed5e" style="font-size:6.75px; font-family:Arial;" text-anchor="middle"><textPath startOffset="22.20632615414155" xlink:href="#id25">January</textPath></text><path d="M 101.44485096284872 79.0497635885617 l 3.2170441369610376 -46.64691165272948 a67.75771315747494,67.75771315747494 0 0,0 1.162883074682207,0.09026210763283757 l -4.019517401005586 46.58462428290818" fill="#62ff29" stroke="none" /><line stroke="#e1ed5e" stroke-width="0.3" x1="143.23703022742887" x2="145.7803849466894" y1="26.81831364943548" y2="22.513508569990506" /><path d="M 143.74570117128098 25.957352633546492 a86.0,86.0 0 0,1 28.547481713284135,27.462654790039103" fill="none" id="id26" stroke="none" /><text fill="#e1ed5e" style="font-size:6.75px; font-family:Arial;" text-anchor="middle"><textPath startOffset="19.985693538727396" xlink:href="#id26">February</textPath></text><path d="M 110.99172775467656 82.1063720568725 l 29.486022457246346 -48.00081726443685 a77.33386173877213,77.33386173877213 0 0,0 1.1282673385643431,0.7065209039015471 l -30.307908948182952 47.486152019212355" fill="#3effb7" stroke="none" /><line stroke="#e1ed5e" stroke-width="0.3" x1="172.23445277983987" x2="176.4835382374775" y1="55.19839476539836" y2="52.563006222186495" /><path d="M 173.08426987136738 54.67131705675599 a86.0,86.0 0 0,1 12.851231095245387,41.99856678651699" fill="none" id="id27" stroke="none" /><text fill="#e1ed5e" style="font-size:6.75px; font-family:Arial;" text-anchor="middle"><textPath startOffset="22.20632615414155" xlink:href="#id27">March</textPath></text><line stroke="#e1ed5e" stroke-width="0.3" x1="184.98032266829074" x2="189.97916517819016" y1="98.17113171792111" y2="98.06355123074" /><path d="M 185.9800911702706 98.14961562048488 a86.0,86.0 0 0,1 -9.607161424134198,41.387399972396054" fill="none" id="id28" stroke="none" /><text fill="#e1ed5e" style="font-size:6.75px; font-family:Arial;" text-anchor="middle"><textPath startOffset="21.466115282336823" xlink:href="#id28">April</textPath></text><line stroke="#e1ed5e" stroke-width="0.3" x1="174.80103733775053" x2="179.2010983576182" y1="140.37084112569926" y2="142.7455964860345" /><path d="M 175.68104954172406 140.8457921977663 a86.0,86.0 0 0,1 -30.038265399797805,32.042727171017184" fill="none" id="id29" stroke="none" /><text fill="#e1ed5e" style="font-size:6.75px; font-family:Arial;" text-anchor="middle"><textPath startOffset="22.206326154141568" xlink:href="#id29">May</textPath></text><path d="M 116.71984013943494 112.70617746262583 l 24.78341398480449 18.834059033730153 a52.12779125521493,52.12779125521493 0 0,0 -0.5490624790063395,0.7097372684826999 l -24.45554468858008 -19.257874296326104" fill="#ff4906" stroke="none" /><path d="M 116.498646956653 112.99209946851258 l 49.495940869959 38.97629840553772 a84.0,84.0 0 0,0 -0.9043283517805842,1.1282886656869988 l -48.81769460612357 -39.822514904802965" fill="#4dd2ff" stroke="none" /><path d="M 116.27256486870786 113.27417163493432 l 31.416981742339313 25.62806854753225 a61.544107331096754,61.544107331096754 0 0,0 -0.6767038364633973,0.8151333640536397 l -30.971181905982373 -26.16506316869966" fill="#ddff1b" stroke="none" /><path d="M 114.81725581225074 114.88116024355365 l 22.789063150548994 22.887348699439766 a53.29817533188922,53.29817533188922 0 0,0 -0.6556945778703261,0.6417351498610905 l -22.391718620302875 -23.27623395222343" fill="#ff6609" stroke="none" /><path d="M 114.0293411484842 115.62618273729858 l 40.24929835879747 44.830536555209136 a81.24768067073984,81.24768067073984 0 0,0 -1.0487050073527455,0.9253602381483759 l -39.47165099853813 -45.5167199351298" fill="#47fffe" stroke="none" /><path d="M 113.20401910651253 116.32954008644616 l 39.46635562962538 48.808429548700175 a83.76827241285594,83.76827241285594 0 0,0 -1.129046754974795,0.8969830260967283 l -38.62035138193324 -49.48054648880203" fill="#4cd6ff" stroke="none" /><path d="M 112.63410532772338 116.77436683061366 l 37.0699863751598 49.21801217679352 a82.61652872800876,82.61652872800876 0 0,0 -1.143314520962181,0.8457967498179498 l -36.21728688377905 -49.84881887535124" fill="#4ae9ff" stroke="none" /><path d="M 112.34349029814194 116.9893568818739 l 35.95929197331609 49.493719345016444 a82.1776015697367,82.1776015697367 0 0,0 -1.1515534478521958,0.8216028094021768 l -35.10201119761501 -50.10536641626284" fill="#49f0ff" stroke="none" /><path d="M 112.04921762599082 117.19931262002967 l 34.15573454705262 48.75463075497389 a80.5283816553295,80.5283816553295 0 0,0 -1.1421344794524186,0.7855705095055826 l -33.311443182977314 -49.33534205384456" fill="#45fff2" stroke="none" /><path d="M 111.1453310114006 117.79835938074945 l 16.629872912878827 26.556811480685905 a52.333957763410474,52.333957763410474 0 0,0 -0.7676165495711647,0.47153278025494283 l -16.170277163375353 -26.839132727769226" fill="#ff4e07" stroke="none" /><line stroke="#e1ed5e" stroke-width="0.3" x1="143.8653032363475" x2="146.44561519142675" y1="172.8068346515853" y2="177.08958963109032" /><path d="M 144.38136562736335 173.6633856474863 a86.0,86.0 0 0,1 -40.68145358897372,12.25698825130547" fill="none" id="id30" stroke="none" /><text fill="#e1ed5e" style="font-size:6.75px; font-family:Arial;" text-anchor="middle"><textPath startOffset="21.466115282336833" xlink:href="#id30">June</textPath></text><path d="M 109.57404056367764 118.69057910512821 l 12.88803289502508 25.160202396450966 a49.26901442451833,49.26901442451833 0 0,0 -0.7581471182668955,0.38015070397502115 l -12.453031869075424 -25.37832094133529" fill="#ff0000" stroke="none" /><path d="M 109.2508944713604 118.85261126421891 l 13.145165556575357 26.788836150832406 a50.84019302594942,50.84019302594942 0 0,0 -0.7889607077895158,0.37874908480222275 l -12.682092180785608 -27.011139512134186" fill="#ff2803" stroke="none" /><path d="M 108.92500713936063 119.00905698771935 l 12.41381138027 26.439737725437407 a50.208944588513276,50.208944588513276 0 0,0 -0.7854878664793736,0.36057895375370524 l -11.956855518023206 -26.649503749525184" fill="#ff1802" stroke="none" /><path d="M 107.93186726928326 119.44442032107085 l 13.754311356825735 33.71773658955397 a57.41520069453212,57.41520069453212 0 0,0 -0.9183121822914162,0.3654153691372896 l -13.171878098492453 -33.949498803097335" fill="#ffc712" stroke="none" /><path d="M 107.2578585660854 119.70592522655815 l 16.628314029075074 45.147795305884095 a69.11262046938978,69.11262046938978 0 0,0 -1.119889183778778,0.401552417554392 l -15.848705284666561 -45.427335264478444" fill="#4aff2c" stroke="none" /><path d="M 106.2309692047433 120.05430185196036 l 11.748864284625745 37.81358293381382 a60.59675322890717,60.59675322890717 0 0,0 -0.9987644171520766,0.3009195258984769 l -11.09622489303342 -38.01021782881802" fill="#f1ff19" stroke="none" /><path d="M 105.53697534728816 120.25689768951611 l 8.018318843605035 29.334836127883033 a51.41095275928499,51.41095275928499 0 0,0 -0.8556485396922248,0.22598455620127542 l -7.5121798611013135 -29.468512033387892" fill="#ff3705" stroke="none" /><path d="M 105.18746579009965 120.34920634021253 l 7.20298704422109 28.255621445923154 a50.159272378688215,50.159272378688215 0 0,0 -0.8384879908670989,0.2060799478436692 l -6.71554576861078 -28.375422652080854" fill="#ff1702" stroke="none" /><path d="M 104.83641907484287 120.43548508189849 l 7.027067887841789 29.69170759796998 a51.511918707018175,51.511918707018175 0 0,0 -0.8646149243017524,0.19678354182656102 l -6.5149328141471745 -29.808267873374227" fill="#ff3905" stroke="none" /><path d="M 104.13013068566511 120.58985236759428 l 5.72082482520196 28.519905914988716 a50.08801935643703,50.08801935643703 0 0,0 -0.8468032854044992,0.1622918650565778 l -5.229053925225756 -28.61415497839376" fill="#ff1502" stroke="none" /><path d="M 103.7750983002368 120.6578951692458 l 6.516360175261953 35.65848480744603 a57.2490067270346,57.2490067270346 0 0,0 -0.9709186965731859,0.16880666070468867 l -5.9015925072167175 -35.76537004667173" fill="#ffc312" stroke="none" /><line stroke="#e1ed5e" stroke-width="0.3" x1="102.19456741930631" x2="102.32365962044197" y1="184.97166512339345" y2="189.96999836594603" /><path d="M 102.22038585953345 185.97133177190398 a86.0,86.0 0 0,1 -42.740103519485714,-10.115201625700543" fill="none" id="id31" stroke="none" /><text fill="#e1ed5e" style="font-size:6.75px; font-family:Arial;" text-anchor="middle"><textPath startOffset="22.20632615414155" xlink:href="#id31">July</textPath></text><line stroke="#e1ed5e" stroke-width="0.3" x1="58.666819895761336" x2="56.23545636021788" y1="174.27360380694188" y2="178.64263932499728" /><path d="M 58.180547188652646 175.14741091055294 a86.0,86.0 0 0,1 -31.652253787137756,-30.449443065178592" fill="none" id="id32" stroke="none" /><text fill="#e1ed5e" style="font-size:6.75px; font-family:Arial;" text-anchor="middle"><textPath startOffset="22.20632615414155" xlink:href="#id32">August</textPath></text><line stroke="#e1ed5e" stroke-width="0.3" x1="26.63291911575756" x2="22.317208475507996" y1="142.92168965132927" y2="145.44649492493687" /><path d="M 25.769776987707644 143.4266507060508 a86.0,86.0 0 0,1 -11.730757126820373,-40.83630448921669" fill="none" id="id33" stroke="none" /><text fill="#e1ed5e" style="font-size:6.75px; font-family:Arial;" text-anchor="middle"><textPath startOffset="21.46611528233685" xlink:href="#id33">September</textPath></text><line stroke="#e1ed5e" stroke-width="0.3" x1="15.007084014347285" x2="10.007500721073583" y1="101.09737516637583" y2="101.16192664675087" /><path d="M 14.007167355692545 101.11028546245083 a86.0,86.0 0 0,1 10.666146001902534,-42.60595125391555" fill="none" id="id34" stroke="none" /><text fill="#e1ed5e" style="font-size:6.75px; font-family:Arial;" text-anchor="middle"><textPath startOffset="22.20632615414155" xlink:href="#id34">October</textPath></text><line stroke="#e1ed5e" stroke-width="0.3" x1="26.266209847984243" x2="21.928928074336255" y1="57.711370442889674" y2="55.22380399835377" /><path d="M 25.398753493254645 57.213857153982495 a86.0,86.0 0 0,1 29.58750427330803,-30.492523968695096" fill="none" id="id35" stroke="none" /><text fill="#e1ed5e" style="font-size:6.75px; font-family:Arial;" text-anchor="middle"><textPath startOffset="21.46611528233685" xlink:href="#id35">November</textPath></text><line stroke="#e1ed5e" stroke-width="0.3" x1="56.762969772571076" x2="54.21961505331055" y1="26.818313649435495" y2="22.513508569990535" /><path d="M 56.25429882871897 25.957352633546506 a86.0,86.0 0 0,1 42.265352541879196,-11.944610805530505" fill="none" id="id36" stroke="none" /><text fill="#e1ed5e" style="font-size:6.75px; font-family:Arial;" text-anchor="middle"><textPath startOffset="22.20632615414155" xlink:href="#id36">December</textPath></text></svg>